<svg xmlns="http://www.w3.org/2000/svg" xmlns:xlink="http://www.w3.org/1999/xlink" width="239" height="286" viewBox="0 0 239 286">
    <defs>
        <path id="cbwobfqija" d="M194.923 78.52c-4.984-.18-11.484 3.107-12.05 10.849-.21 2.873.16 5.552 1.266 8.123 1.326 3.08 2.629 6.205 4.323 9.087 2.894 4.922 4.876 10.256 7.338 15.37 2.926 6.082 3.966 12.785 5.926 19.187.369 1.208.216 2.575.303 3.869l-1.01-.49c-.41-.416-.877-.79-1.224-1.256-4.675-6.26-10.493-11.348-16.654-16.054-3.243-2.477-6.647-4.748-10.02-7.05-1.687-1.152-3.48-2.146-5.2-3.25-4.433-2.844-9.464-4.483-14.06-7.012-3.051-1.68-6.284-3.034-9.407-4.592-3.108-1.548-6.082-3.309-9.05-5.138-7.1-4.38-13.771-9.267-20.015-14.773-.676-.596-1.21-1.17-1.162-2.193.162-3.44-1.331-5.857-4.606-7.081-.851-.318-.991-.929-.83-1.732.114-.568.076-1.175.24-1.724 1.306-4.339 1.823-8.765 2.22-13.287.539-6.13-1.195-11.835-2.142-17.7-2.756-6.255-5.461-12.526-9.969-17.811-3.522-4.128-7.477-7.853-12.099-10.578-6.92-4.08-14.328-7.035-22.501-7.817-3.914-.375-7.857-.73-11.686-.194-12.162 1.7-22.863 6.657-31.603 15.444-2.052 2.062-4.33 4.108-5.692 6.603-2.154 3.946-4.63 7.698-6.254 12.013C6.886 45.766 6.063 52.378 6 59.045c-.05 5.498 1.098 10.997 3.105 16.202.835 2.169 1.176 4.54 2.526 6.499 2.066 3 4.044 6.07 6.275 8.94 6.794 8.737 17.567 15.794 29.51 18.163 2.21.438 4.512.644 6.732 1.107.043 1.444.056 2.595.115 3.743.07 1.4.561 2.736 1.918 3.19 2.358.79 2.893 2.6 3.208 4.7.238 1.586.71 3.144.859 4.735.437 4.641.794 9.29 1.13 13.94.514 7.137.93 14.28 1.488 21.413.438 5.612 1.987 10.918 5.048 15.686 3.07 4.78 6.24 9.495 9.388 14.223 1.645 2.473 4.147 3.624 6.937 4.15 1.577.297 3.597.458 4.585-.669 1.132-1.29 2.45-1.328 3.755-1.803.819-.297 1.618-.685 2.362-1.139.864-.528.722-2.322-.276-2.523-2.974-.596-4.807-2.685-6.558-4.812-2.38-2.891-5.031-5.714-3.935-10.064.271-1.076.082-2.371-.23-3.47-.836-2.94-.104-5.763.3-8.638.83-5.907 1.566-11.826 2.342-17.74l1.136-1.419c.418.592.858 1.171 1.251 1.78 2.616 4.048 4.633 8.42 6.882 12.666 2.796 5.28 5.779 10.461 8.51 15.773 2.93 5.698 5.948 11.34 9.354 16.766 1.467 2.338 3.059 4.598 4.594 6.892 1.091 1.63 1.713 3.342 1.265 5.365-1.61 7.283-.787 14.456 1.049 21.578.765 2.966 1.756 5.836 2.903 8.69 3.876 9.644 9.237 18.11 18.043 24.016.886.594 1.572 1.24 1.683 2.392.395 4.103 2.854 7.591 3.502 11.635.156.975.695 1.906 1.145 2.814 1.304 2.633 3.402 4.42 6.297 4.82 1.26.175 2.583.26 3.88.35 1.076.073 1.85-.75 2.012-1.862.177-1.227-.36-2.303-.65-3.414-.872-3.357-.082-6.663.14-9.988 2.036-3.232 2.535-7.05 4.01-10.511 1.481-3.477 2.486-7.154 4.168-10.57.834-1.694 1.52-3.469 2.16-5.247 1.143-3.188.556-4.259-2.679-4.798-2.149-.36-4.427-.218-6.477-.85-10.447-3.224-19.974-8.12-27.726-16.029-.861-.878-2.402-1.465-1.795-3.143.34-.938 1.613-.515 3.709 1.096.91.7 1.55 2.105 2.772 1.972 1.703-.187 2.686.844 3.91 1.568 1.633.966 3.324 1.83 4.968 2.775.932.535 1.86.701 2.933.458 4.371-.993 7.86 1.479 11.567 3.051.374.158.566.593.349 1.084-.207.466-.632.734-1.022.627-1.817-.498-3.765-.456-5.462-1.482-1.26-.762-2.724-1.007-4.196-1.016-.415-.003-.86.154-.983.69-.112.486.092.88.45 1.113 2.09 1.359 4.482 2.066 6.732 3.081 3.52 1.59 7.319 1.898 11.042 2.584 4.328.798 8.64 1.304 12.972-.002 1.39-.42 2.822-.699 4.234-1.042.77.093 1.425-.13 1.243-1.009-.113-.542-.766-.627-1.328-.47-2.518-1.75-5.062-3.466-7.545-5.265-2.978-2.157-5.668-4.656-7.651-7.76-2.334-3.654-5.456-6.855-6.503-11.28-.299-1.259-1.022-2.417-1.558-3.618-.713-1.598-1.417-3.2-2.16-4.785-.32-.685-.484-1.377-.34-2.12.118-.612.445-1.06 1.105-1.18.485-.09.864.102 1.073.52.714 1.436 1.454 2.864 2.09 4.336 2.078 4.809 3.93 9.715 6.933 14.082 2.572 3.741 5.418 7.212 8.999 10.024 2.984 2.343 5.963 4.704 9.51 6.197.531.224 1.213.46 1.47.9 1.27 2.162 3.552 2.542 5.596 3.047 3.786.935 7.035 2.687 9.902 5.27.648.584 1.346 1.172 2.125 1.543 3.567 1.7 5.449 4.589 6.488 8.317.963 3.458 2.893 6.41 5.99 8.389 2.416 1.544 4.933 2.327 7.657.532.57-.374 1.42-.293 2.112-.514 1.325-.425 1.826-1.421 1.459-2.692-.295-1.018-.976-1.737-1.674-2.506-3.058-3.367-3.533-7.917-5.31-11.874.25-3.5-.637-6.938-.318-10.478.506-5.618-.17-11.06-4.094-15.59-.995-1.149-1.24-2.536-1.31-4.064-.257-5.565.677-11.056.914-16.59.137-3.192.327-6.358.159-9.563-.17-3.216-1.154-6.066-3.251-8.408-1.837-2.05-1.983-4.164-.863-6.44 2.32-4.708 4.094-9.63 5.655-14.615 2.052-6.55 3.78-13.274 3.45-20.15-.411-8.56-.458-17.173-2.723-25.6-1.26-4.691-2.552-9.232-5.201-13.368-1.595-2.49-3.703-4.458-5.614-6.64-4.47-5.107-10.33-6.964-16.78-7.198"/>
    </defs>
    <g fill="none" fill-rule="evenodd">
        <g>
            <g>
                <path fill="#F7DFC8" d="M194.923 78.52c-4.984-.18-11.484 3.107-12.05 10.849-.21 2.873.16 5.552 1.266 8.123 1.326 3.08 2.629 6.205 4.323 9.087 2.894 4.922 4.876 10.256 7.338 15.37 2.926 6.082 3.966 12.785 5.926 19.187.369 1.208.216 2.575.303 3.869l-1.01-.49c-.41-.416-.877-.79-1.224-1.256-4.675-6.26-10.493-11.348-16.654-16.054-3.243-2.477-6.647-4.748-10.02-7.05-1.687-1.152-3.48-2.146-5.2-3.25-4.433-2.844-9.464-4.483-14.06-7.012-3.051-1.68-6.284-3.034-9.407-4.592-3.108-1.548-6.082-3.309-9.05-5.138-7.1-4.38-13.771-9.267-20.015-14.773-.676-.596-1.21-1.17-1.162-2.193.162-3.44-1.331-5.857-4.606-7.081-.851-.318-.991-.929-.83-1.732.114-.568.076-1.175.24-1.724 1.306-4.339 1.823-8.765 2.22-13.287.539-6.13-1.195-11.835-2.142-17.7-2.756-6.255-5.461-12.526-9.969-17.811-3.522-4.128-7.477-7.853-12.099-10.578-6.92-4.08-14.328-7.035-22.501-7.817-3.914-.375-7.857-.73-11.686-.194-12.162 1.7-22.863 6.657-31.603 15.444-2.052 2.062-4.33 4.108-5.692 6.603-2.154 3.946-4.63 7.698-6.254 12.013C6.886 45.766 6.063 52.378 6 59.045c-.05 5.498 1.098 10.997 3.105 16.202.835 2.169 1.176 4.54 2.526 6.499 2.066 3 4.044 6.07 6.275 8.94 6.794 8.737 17.567 15.794 29.51 18.163 2.21.438 4.512.644 6.732 1.107.043 1.444.056 2.595.115 3.743.07 1.4.561 2.736 1.918 3.19 2.358.79 2.893 2.6 3.208 4.7.238 1.586.71 3.144.859 4.735.437 4.641.794 9.29 1.13 13.94.514 7.137.93 14.28 1.488 21.413.438 5.612 1.987 10.918 5.048 15.686 3.07 4.78 6.24 9.495 9.388 14.223 1.645 2.473 4.147 3.624 6.937 4.15 1.577.297 3.597.458 4.585-.669 1.132-1.29 2.45-1.328 3.755-1.803.819-.297 1.618-.685 2.362-1.139.864-.528.722-2.322-.276-2.523-2.974-.596-4.807-2.685-6.558-4.812-2.38-2.891-5.031-5.714-3.935-10.064.271-1.076.082-2.371-.23-3.47-.836-2.94-.104-5.763.3-8.638.83-5.907 1.566-11.826 2.342-17.74l1.136-1.419c.418.592.858 1.171 1.251 1.78 2.616 4.048 4.633 8.42 6.882 12.666 2.796 5.28 5.779 10.461 8.51 15.773 2.93 5.698 5.948 11.34 9.354 16.766 1.467 2.338 3.059 4.598 4.594 6.892 1.091 1.63 1.713 3.342 1.265 5.365-1.61 7.283-.787 14.456 1.049 21.578.765 2.966 1.756 5.836 2.903 8.69 3.876 9.644 9.237 18.11 18.043 24.016.886.594 1.572 1.24 1.683 2.392.395 4.103 2.854 7.591 3.502 11.635.156.975.695 1.906 1.145 2.814 1.304 2.633 3.402 4.42 6.297 4.82 1.26.175 2.583.26 3.88.35 1.076.073 1.85-.75 2.012-1.862.177-1.227-.36-2.303-.65-3.414-.872-3.357-.082-6.663.14-9.988 2.036-3.232 2.535-7.05 4.01-10.511 1.481-3.477 2.486-7.154 4.168-10.57.834-1.694 1.52-3.469 2.16-5.247 1.143-3.188.556-4.259-2.679-4.798-2.149-.36-4.427-.218-6.477-.85-10.447-3.224-19.974-8.12-27.726-16.029-.861-.878-2.402-1.465-1.795-3.143.34-.938 1.613-.515 3.709 1.096.91.7 1.55 2.105 2.772 1.972 1.703-.187 2.686.844 3.91 1.568 1.633.966 3.324 1.83 4.968 2.775.932.535 1.86.701 2.933.458 4.371-.993 7.86 1.479 11.567 3.051.374.158.566.593.349 1.084-.207.466-.632.734-1.022.627-1.817-.498-3.765-.456-5.462-1.482-1.26-.762-2.724-1.007-4.196-1.016-.415-.003-.86.154-.983.69-.112.486.092.88.45 1.113 2.09 1.359 4.482 2.066 6.732 3.081 3.52 1.59 7.319 1.898 11.042 2.584 4.328.798 8.64 1.304 12.972-.002 1.39-.42 2.822-.699 4.234-1.042.77.093 1.425-.13 1.243-1.009-.113-.542-.766-.627-1.328-.47-2.518-1.75-5.062-3.466-7.545-5.265-2.978-2.157-5.668-4.656-7.651-7.76-2.334-3.654-5.456-6.855-6.503-11.28-.299-1.259-1.022-2.417-1.558-3.618-.713-1.598-1.417-3.2-2.16-4.785-.32-.685-.484-1.377-.34-2.12.118-.612.445-1.06 1.105-1.18.485-.09.864.102 1.073.52.714 1.436 1.454 2.864 2.09 4.336 2.078 4.809 3.93 9.715 6.933 14.082 2.572 3.741 5.418 7.212 8.999 10.024 2.984 2.343 5.963 4.704 9.51 6.197.531.224 1.213.46 1.47.9 1.27 2.162 3.552 2.542 5.596 3.047 3.786.935 7.035 2.687 9.902 5.27.648.584 1.346 1.172 2.125 1.543 3.567 1.7 5.449 4.589 6.488 8.317.963 3.458 2.893 6.41 5.99 8.389 2.416 1.544 4.933 2.327 7.657.532.57-.374 1.42-.293 2.112-.514 1.325-.425 1.826-1.421 1.459-2.692-.295-1.018-.976-1.737-1.674-2.506-3.058-3.367-3.533-7.917-5.31-11.874.25-3.5-.637-6.938-.318-10.478.506-5.618-.17-11.06-4.094-15.59-.995-1.149-1.24-2.536-1.31-4.064-.257-5.565.677-11.056.914-16.59.137-3.192.327-6.358.159-9.563-.17-3.216-1.154-6.066-3.251-8.408-1.837-2.05-1.983-4.164-.863-6.44 2.32-4.708 4.094-9.63 5.655-14.615 2.052-6.55 3.78-13.274 3.45-20.15-.411-8.56-.458-17.173-2.723-25.6-1.26-4.691-2.552-9.232-5.201-13.368-1.595-2.49-3.703-4.458-5.614-6.64-4.47-5.107-10.33-6.964-16.78-7.198" transform="translate(-1719 -2129) translate(1720 2130)"/>
                <path fill="#FFFFF5" d="M154.984 189.06c.967-1.355 2.42-2.292 4.155-2.607 2.759-.504 5.452.831 6.698 3.323l.421.839c.624 1.237 1.243 2.477 1.796 3.747l1.015 2.377c1.656 3.898 3.22 7.58 5.441 10.8 2.714 3.93 5.239 6.746 7.942 8.86 2.885 2.26 5.479 4.288 8.33 5.484 1.026.42 2.834 1.161 3.955 3.06.182.104 1.16.338 1.805.492l.548.133c4.554 1.119 8.65 3.289 12.172 6.448.58.522.805.67.887.714 4.681 2.22 7.721 6.018 9.283 11.603.682 2.438 1.922 4.2 3.783 5.385.62.393 1.018.59 1.295.671-1.702-2.55-2.562-5.203-3.339-7.604-.42-1.29-.813-2.509-1.293-3.57l-.54-1.198.096-1.31c.091-1.282-.034-2.716-.166-4.234-.164-1.894-.35-4.042-.146-6.322.476-5.27-.402-8.876-2.848-11.688-2.108-2.425-2.488-5.14-2.584-7.231-.179-3.852.153-7.565.478-11.152.175-1.957.352-3.912.437-5.873l.056-1.237c.123-2.716.24-5.281.107-7.816-.117-2.204-.732-3.856-1.935-5.195-3.2-3.56-3.79-7.895-1.658-12.204 1.905-3.853 3.61-8.252 5.37-13.847 1.85-5.884 3.52-12.175 3.224-18.312l-.162-3.666c-.307-7.266-.595-14.128-2.394-20.795-1.261-4.672-2.398-8.516-4.568-11.888-.893-1.39-2.108-2.696-3.396-4.079-.592-.638-1.185-1.277-1.762-1.932-3.057-3.48-7.211-5.199-13.071-5.41h-.002c-1.728-.063-6.294.894-6.671 6.005-.159 2.15.115 3.951.858 5.67l.322.746c1.193 2.769 2.32 5.384 3.716 7.748 2.053 3.478 3.65 7.071 5.192 10.546.772 1.736 1.54 3.472 2.367 5.183 2.198 4.55 3.401 9.244 4.563 13.784.524 2.046 1.047 4.092 1.666 6.107.474 1.547.486 2.961.497 4.098.003.313.004.626.023.933l.614 8.95-9.94-4.79-.89-.885c-.388-.363-.92-.861-1.432-1.54-4.764-6.357-10.881-11.362-15.68-15.013-2.655-2.02-5.399-3.88-8.305-5.85l-1.515-1.028c-.914-.621-1.867-1.193-2.818-1.766-.76-.458-1.521-.918-2.27-1.397-2.231-1.426-4.74-2.55-7.396-3.74-2.09-.939-4.254-1.909-6.39-3.08-1.736-.951-3.558-1.8-5.486-2.698-1.258-.585-2.517-1.171-3.759-1.788-3.484-1.73-6.749-3.68-9.48-5.36-7.474-4.59-14.465-9.73-20.778-15.275-.768-.674-3.1-2.726-2.93-6.344.062-1.291-.19-1.56-1.225-1.945-3.197-1.188-4.82-4.182-4.129-7.628.048-.637.109-1.36.357-2.193 1.113-3.679 1.616-7.55 2.029-12.232.335-3.803-.427-7.638-1.231-11.699-.264-1.335-.529-2.673-.759-4.018-2.586-5.85-5.041-11.372-8.921-15.903-3.603-4.21-7.137-7.301-10.804-9.454-7.062-4.147-13.734-6.473-20.394-7.107-3.524-.336-7.168-.683-10.489-.22-11.392 1.585-21.047 6.274-28.694 13.935l-.973.962c-1.573 1.546-3.058 3.005-3.85 4.453-.602 1.095-1.225 2.176-1.85 3.258-1.582 2.738-3.075 5.323-4.116 8.075-1.966 5.207-2.91 10.893-2.978 17.895-.042 4.614.888 9.41 2.763 14.258.323.833.588 1.692.848 2.554.359 1.186.67 2.211 1.11 2.85l1.613 2.36c1.514 2.227 2.945 4.332 4.5 6.326 6.354 8.139 16.249 14.203 26.468 16.22.973.194 1.965.335 2.96.478 1.284.186 2.571.377 3.835.639l4.046.838.152 5.445c.014.523.025 1.01.041 1.485 4.231 2.25 4.889 6.629 5.122 8.174.086.564.209 1.122.328 1.679.212.991.452 2.113.568 3.336.442 4.67.803 9.35 1.142 14.031.213 2.948.41 5.9.607 8.85.278 4.168.557 8.336.882 12.498.4 5.103 1.79 9.439 4.247 13.252 2.505 3.887 5.081 7.732 7.654 11.576l1.709 2.555c.442.66 1.246 1.474 3.567 1.91.253.048.46.078.623.096.103-.09.206-.174.31-.255-.806-.819-1.481-1.636-2.062-2.338l-.425-.511c-2.482-2.977-6.236-7.478-4.554-14.123-.024.069-.042-.246-.191-.772-1.008-3.528-.484-6.768-.063-9.371.076-.465.15-.932.216-1.398.581-4.122 1.116-8.25 1.651-12.378l.88-6.73 6.383-7.963 4.376 6.147c.352.484.7.968 1.025 1.468 2.034 3.137 3.7 6.39 5.311 9.536.599 1.17 1.2 2.34 1.817 3.502 1.183 2.226 2.401 4.434 3.619 6.644 1.676 3.038 3.35 6.077 4.94 9.159 2.582 5 5.687 10.852 9.154 16.355.981 1.555 2.02 3.077 3.06 4.6l1.462 2.153c2.05 3.052 2.732 6.206 2.03 9.375-1.242 5.591-.921 11.668 1.009 19.124.654 2.53 1.536 5.156 2.698 8.031 4.073 10.097 9.203 16.96 16.145 21.598.893.595 3.611 2.412 3.98 6.215.14 1.447.75 2.989 1.46 4.774.757 1.904 1.615 4.066 2.009 6.519.029.062.265.527.425.837l.244.482c.477.96 1 1.44 1.446 1.688-.4-2.72-.122-5.228.13-7.49.085-.77.172-1.539.223-2.309l.089-1.314.703-1.115c.878-1.387 1.432-3.198 2.018-5.116.459-1.499.933-3.05 1.615-4.644.58-1.357 1.08-2.746 1.583-4.134.788-2.178 1.603-4.43 2.717-6.682.452-.915.862-1.885 1.222-2.799h-.001c-1.532-.113-3.268-.24-5.085-.8-12.468-3.83-22.277-9.5-29.986-17.334l-.195-.151c-3.743-2.978-3.582-6.213-2.788-8.403.665-1.816 2.087-3.16 3.912-3.69 3.033-.883 5.704.73 7.916 2.423.407.312.748.634 1.032.93 2.166.262 3.708 1.299 4.631 1.918.166.114.334.23.509.334.863.508 1.742.984 2.62 1.463.651.353 1.3.706 1.943 1.07 5.04-.977 9.045.937 12.281 2.484.682.326 1.362.652 2.052.944 1.476.622 2.618 1.785 3.209 3.273.344.866.477 1.783.401 2.695.742.118 1.482.24 2.221.375 1.559.287 2.984.506 4.317.624-3.301-2.554-5.844-5.254-7.746-8.22-.588-.917-1.232-1.8-1.873-2.686-2.028-2.796-4.324-5.964-5.328-10.182-.067-.286-.365-.878-.625-1.4-.215-.428-.428-.855-.622-1.288l-.376-.84c-.575-1.287-1.151-2.576-1.75-3.853-.831-1.774-1.08-3.561-.74-5.313.198-1.015.594-1.93 1.15-2.71zm80.718 67.246c-.9 1.26-2.238 2.244-3.915 2.78-.49.157-1.018.262-1.549.338-2.86 1.616-7.206 2.543-12.656-.925-4.016-2.557-6.862-6.488-8.228-11.367-.742-2.653-1.82-4.102-3.716-5.002-1.385-.658-2.487-1.57-3.382-2.374-2.256-2.026-4.767-3.359-7.674-4.073l-.482-.116c-1.48-.354-3.607-.861-5.542-2.239-.918.552-1.992.862-3.14.903l-.734.171c-.853.194-1.706.383-2.542.634-2.344.705-4.654.99-6.911 1.017-.163 1.288-.549 2.36-.768 2.964-.579 1.607-1.375 3.716-2.393 5.778-.855 1.732-1.538 3.618-2.262 5.616-.57 1.575-1.14 3.147-1.8 4.684-.46 1.08-.835 2.3-1.23 3.595-.616 2.011-1.3 4.252-2.483 6.452-.05.503-.105 1.007-.161 1.51-.237 2.14-.442 3.988-.032 5.557.048.183.11.369.172.558.357 1.115.897 2.798.594 4.903-.566 3.857-3.81 6.572-7.557 6.313-1.573-.106-2.939-.204-4.246-.384-4.48-.617-8.133-3.34-10.282-7.664l-.194-.38c-.492-.964-1.168-2.285-1.43-3.911-.215-1.334-.795-2.795-1.408-4.34-.759-1.912-1.605-4.042-1.999-6.475-8.6-5.937-14.784-14.207-19.567-26.057-1.33-3.298-2.351-6.346-3.12-9.318-2.355-9.102-2.703-16.72-1.094-23.969.036-.16.097-.435-.509-1.337l-1.419-2.088c-1.109-1.628-2.22-3.254-3.269-4.918-3.676-5.837-6.914-11.935-9.597-17.13-1.547-2.999-3.176-5.953-4.807-8.91-1.242-2.255-2.485-4.509-3.694-6.782-.38-.717-.756-1.438-1.128-2.159-.23 1.719-.463 3.435-.706 5.15-.075.538-.161 1.071-.248 1.604-.322 1.99-.576 3.562-.201 4.873.644 2.26.734 4.332.271 6.162-.334 1.325.224 2.24 2.46 4.92l.451.544c1.574 1.903 2.461 2.79 3.56 3.008 2.533.506 4.472 2.545 4.945 5.192.485 2.737-.707 5.502-2.965 6.88-1.053.642-2.171 1.178-3.317 1.591-.449.163-.907.296-1.364.421-.143.041-.29.074-.43.119-2.078 2.197-5.209 2.92-9.315 2.15-4.612-.866-8.09-3.012-10.34-6.377l-1.704-2.548c-2.607-3.893-5.214-7.788-7.753-11.727-3.368-5.225-5.343-11.304-5.874-18.07-.328-4.204-.61-8.41-.891-12.617-.194-2.932-.39-5.863-.602-8.794-.333-4.605-.689-9.208-1.123-13.805-.068-.717-.231-1.423-.384-2.133-.164-.769-.326-1.537-.442-2.313-.046-.298-.085-.516-.12-.674-2.884-1.152-4.726-3.812-5.038-7.256-.902-.135-1.801-.276-2.688-.451-12.615-2.491-24.838-9.986-32.691-20.047-1.769-2.264-3.363-4.611-4.906-6.881l-1.563-2.29c-1.372-1.98-2.004-4.074-2.513-5.756-.184-.609-.363-1.219-.592-1.81-2.351-6.08-3.515-12.168-3.463-18.1.078-8.149 1.27-15.17 3.647-21.468 1.341-3.546 3.12-6.625 4.84-9.604.587-1.013 1.172-2.026 1.735-3.052 1.523-2.797 3.734-4.96 5.683-6.875l.906-.898C26.108 7.919 37.771 2.23 51.476.324 56.017-.308 60.477.116 64.41.49c8.22.784 16.303 3.566 24.712 8.505 4.684 2.749 9.083 6.566 13.451 11.668 4.903 5.725 7.795 12.265 10.59 18.588l.48 1.087.107.658c.235 1.452.523 2.891.807 4.331.912 4.597 1.854 9.347 1.39 14.628-.343 3.893-.812 8.365-2.03 12.911 3.073 2.097 4.838 5.308 5.026 9.227 5.798 5.021 12.062 9.593 18.75 13.701 2.533 1.557 5.545 3.357 8.656 4.902 1.165.58 2.343 1.127 3.52 1.675 1.998.93 4.063 1.892 6.1 3.008 1.77.97 3.65 1.813 5.642 2.705 2.885 1.295 5.868 2.633 8.753 4.477.67.428 1.353.838 2.034 1.25 1.114.671 2.227 1.345 3.3 2.075l1.502 1.019c2.896 1.962 5.888 3.991 8.77 6.183 1.986 1.512 4.18 3.237 6.435 5.187-.476-1.39-1.01-2.737-1.638-4.036-.874-1.81-1.69-3.646-2.505-5.483-1.49-3.353-2.895-6.52-4.644-9.483-1.731-2.929-3.042-5.972-4.31-8.915l-.319-.737c-1.413-3.27-1.964-6.723-1.682-10.551.776-10.555 9.59-15.942 17.488-15.657 8.817.318 15.546 3.25 20.566 8.96.51.583 1.037 1.148 1.563 1.713 1.47 1.58 3.135 3.37 4.532 5.54 2.974 4.623 4.413 9.44 5.861 14.806 2.099 7.78 2.426 15.548 2.743 23.06l.16 3.604c.374 7.76-1.554 15.124-3.69 21.925-1.923 6.116-3.82 10.991-5.969 15.337-.094.189-.136.317-.158.39.032.026.102.126.227.263 2.8 3.118 4.343 7.018 4.584 11.596.16 3.045.026 5.988-.101 8.835l-.056 1.211c-.089 2.121-.279 4.238-.469 6.356-.306 3.39-.594 6.594-.446 9.745.034.754.11.981.124 1.018 4.255 4.858 6.009 11.218 5.277 19.313-.123 1.365.01 2.883.148 4.489.121 1.395.255 2.937.234 4.56.465 1.174.837 2.326 1.202 3.451.773 2.386 1.441 4.447 2.72 5.851.93 1.017 2.209 2.417 2.83 4.558.673 2.314.266 4.573-.976 6.312z" transform="translate(-1719 -2129) translate(1720 2130)"/>
                <path stroke="#000" stroke-linecap="round" stroke-linejoin="round" stroke-width="1.92" d="M154.984 189.06c.967-1.355 2.42-2.292 4.155-2.607 2.759-.504 5.452.831 6.698 3.323l.421.839c.624 1.237 1.243 2.477 1.796 3.747l1.015 2.377c1.656 3.898 3.22 7.58 5.441 10.8 2.714 3.93 5.239 6.746 7.942 8.86 2.885 2.26 5.479 4.288 8.33 5.484 1.026.42 2.834 1.161 3.955 3.06.182.104 1.16.338 1.805.492l.548.133c4.554 1.119 8.65 3.289 12.172 6.448.58.522.805.67.887.714 4.681 2.22 7.721 6.018 9.283 11.603.682 2.438 1.922 4.2 3.783 5.385.62.393 1.018.59 1.295.671-1.702-2.55-2.562-5.203-3.339-7.604-.42-1.29-.813-2.509-1.293-3.57l-.54-1.198.096-1.31c.091-1.282-.034-2.716-.166-4.234-.164-1.894-.35-4.042-.146-6.322.476-5.27-.402-8.876-2.848-11.688-2.108-2.425-2.488-5.14-2.584-7.231-.179-3.852.153-7.565.478-11.152.175-1.957.352-3.912.437-5.873l.056-1.237c.123-2.716.24-5.281.107-7.816-.117-2.204-.732-3.856-1.935-5.195-3.2-3.56-3.79-7.895-1.658-12.204 1.905-3.853 3.61-8.252 5.37-13.847 1.85-5.884 3.52-12.175 3.224-18.312l-.162-3.666c-.307-7.266-.595-14.128-2.394-20.795-1.261-4.672-2.398-8.516-4.568-11.888-.893-1.39-2.108-2.696-3.396-4.079-.592-.638-1.185-1.277-1.762-1.932-3.057-3.48-7.211-5.199-13.071-5.41h-.002c-1.728-.063-6.294.894-6.671 6.005-.159 2.15.115 3.951.858 5.67l.322.746c1.193 2.769 2.32 5.384 3.716 7.748 2.053 3.478 3.65 7.071 5.192 10.546.772 1.736 1.54 3.472 2.367 5.183 2.198 4.55 3.401 9.244 4.563 13.784.524 2.046 1.047 4.092 1.666 6.107.474 1.547.486 2.961.497 4.098.003.313.004.626.023.933l.614 8.95-9.94-4.79-.89-.885c-.388-.363-.92-.861-1.432-1.54-4.764-6.357-10.881-11.362-15.68-15.013-2.655-2.02-5.399-3.88-8.305-5.85l-1.515-1.028c-.914-.621-1.867-1.193-2.818-1.766-.76-.458-1.521-.918-2.27-1.397-2.231-1.426-4.74-2.55-7.396-3.74-2.09-.939-4.254-1.909-6.39-3.08-1.736-.951-3.558-1.8-5.486-2.698-1.258-.585-2.517-1.171-3.759-1.788-3.484-1.73-6.749-3.68-9.48-5.36-7.474-4.59-14.465-9.73-20.778-15.275-.768-.674-3.1-2.726-2.93-6.344.062-1.291-.19-1.56-1.225-1.945-3.197-1.188-4.82-4.182-4.129-7.628.048-.637.109-1.36.357-2.193 1.113-3.679 1.616-7.55 2.029-12.232.335-3.803-.427-7.638-1.231-11.699-.264-1.335-.529-2.673-.759-4.018-2.586-5.85-5.041-11.372-8.921-15.903-3.603-4.21-7.137-7.301-10.804-9.454-7.062-4.147-13.734-6.473-20.394-7.107-3.524-.336-7.168-.683-10.489-.22-11.392 1.585-21.047 6.274-28.694 13.935l-.973.962c-1.573 1.546-3.058 3.005-3.85 4.453-.602 1.095-1.225 2.176-1.85 3.258-1.582 2.738-3.075 5.323-4.116 8.075-1.966 5.207-2.91 10.893-2.978 17.895-.042 4.614.888 9.41 2.763 14.258.323.833.588 1.692.848 2.554.359 1.186.67 2.211 1.11 2.85l1.613 2.36c1.514 2.227 2.945 4.332 4.5 6.326 6.354 8.139 16.249 14.203 26.468 16.22.973.194 1.965.335 2.96.478 1.284.186 2.571.377 3.835.639l4.046.838.152 5.445c.014.523.025 1.01.041 1.485 4.231 2.25 4.889 6.629 5.122 8.174.086.564.209 1.122.328 1.679.212.991.452 2.113.568 3.336.442 4.67.803 9.35 1.142 14.031.213 2.948.41 5.9.607 8.85.278 4.168.557 8.336.882 12.498.4 5.103 1.79 9.439 4.247 13.252 2.505 3.887 5.081 7.732 7.654 11.576l1.709 2.555c.442.66 1.246 1.474 3.567 1.91.253.048.46.078.623.096.103-.09.206-.174.31-.255-.806-.819-1.481-1.636-2.062-2.338l-.425-.511c-2.482-2.977-6.236-7.478-4.554-14.123-.024.069-.042-.246-.191-.772-1.008-3.528-.484-6.768-.063-9.371.076-.465.15-.932.216-1.398.581-4.122 1.116-8.25 1.651-12.378l.88-6.73 6.383-7.963 4.376 6.147c.352.484.7.968 1.025 1.468 2.034 3.137 3.7 6.39 5.311 9.536.599 1.17 1.2 2.34 1.817 3.502 1.183 2.226 2.401 4.434 3.619 6.644 1.676 3.038 3.35 6.077 4.94 9.159 2.582 5 5.687 10.852 9.154 16.355.981 1.555 2.02 3.077 3.06 4.6l1.462 2.153c2.05 3.052 2.732 6.206 2.03 9.375-1.242 5.591-.921 11.668 1.009 19.124.654 2.53 1.536 5.156 2.698 8.031 4.073 10.097 9.203 16.96 16.145 21.598.893.595 3.611 2.412 3.98 6.215.14 1.447.75 2.989 1.46 4.774.757 1.904 1.615 4.066 2.009 6.519.029.062.265.527.425.837l.244.482c.477.96 1 1.44 1.446 1.688-.4-2.72-.122-5.228.13-7.49.085-.77.172-1.539.223-2.309l.089-1.314.703-1.115c.878-1.387 1.432-3.198 2.018-5.116.459-1.499.933-3.05 1.615-4.644.58-1.357 1.08-2.746 1.583-4.134.788-2.178 1.603-4.43 2.717-6.682.452-.915.862-1.885 1.222-2.799h-.001c-1.532-.113-3.268-.24-5.085-.8-12.468-3.83-22.277-9.5-29.986-17.334l-.195-.151c-3.743-2.978-3.582-6.213-2.788-8.403.665-1.816 2.087-3.16 3.912-3.69 3.033-.883 5.704.73 7.916 2.423.407.312.748.634 1.032.93 2.166.262 3.708 1.299 4.631 1.918.166.114.334.23.509.334.863.508 1.742.984 2.62 1.463.651.353 1.3.706 1.943 1.07 5.04-.977 9.045.937 12.281 2.484.682.326 1.362.652 2.052.944 1.476.622 2.618 1.785 3.209 3.273.344.866.477 1.783.401 2.695.742.118 1.482.24 2.221.375 1.559.287 2.984.506 4.317.624-3.301-2.554-5.844-5.254-7.746-8.22-.588-.917-1.232-1.8-1.873-2.686-2.028-2.796-4.324-5.964-5.328-10.182-.067-.286-.365-.878-.625-1.4-.215-.428-.428-.855-.622-1.288l-.376-.84c-.575-1.287-1.151-2.576-1.75-3.853-.831-1.774-1.08-3.561-.74-5.313.198-1.015.594-1.93 1.15-2.71zm80.718 67.246c-.9 1.26-2.238 2.244-3.915 2.78-.49.157-1.018.262-1.549.338-2.86 1.616-7.206 2.543-12.656-.925-4.016-2.557-6.862-6.488-8.228-11.367-.742-2.653-1.82-4.102-3.716-5.002-1.385-.658-2.487-1.57-3.382-2.374-2.256-2.026-4.767-3.359-7.674-4.073l-.482-.116c-1.48-.354-3.607-.861-5.542-2.239-.918.552-1.992.862-3.14.903l-.734.171c-.853.194-1.706.383-2.542.634-2.344.705-4.654.99-6.911 1.017-.163 1.288-.549 2.36-.768 2.964-.579 1.607-1.375 3.716-2.393 5.778-.855 1.732-1.538 3.618-2.262 5.616-.57 1.575-1.14 3.147-1.8 4.684-.46 1.08-.835 2.3-1.23 3.595-.616 2.011-1.3 4.252-2.483 6.452-.05.503-.105 1.007-.161 1.51-.237 2.14-.442 3.988-.032 5.557.048.183.11.369.172.558.357 1.115.897 2.798.594 4.903-.566 3.857-3.81 6.572-7.557 6.313-1.573-.106-2.939-.204-4.246-.384-4.48-.617-8.133-3.34-10.282-7.664l-.194-.38c-.492-.964-1.168-2.285-1.43-3.911-.215-1.334-.795-2.795-1.408-4.34-.759-1.912-1.605-4.042-1.999-6.475-8.6-5.937-14.784-14.207-19.567-26.057-1.33-3.298-2.351-6.346-3.12-9.318-2.355-9.102-2.703-16.72-1.094-23.969.036-.16.097-.435-.509-1.337l-1.419-2.088c-1.109-1.628-2.22-3.254-3.269-4.918-3.676-5.837-6.914-11.935-9.597-17.13-1.547-2.999-3.176-5.953-4.807-8.91-1.242-2.255-2.485-4.509-3.694-6.782-.38-.717-.756-1.438-1.128-2.159-.23 1.719-.463 3.435-.706 5.15-.075.538-.161 1.071-.248 1.604-.322 1.99-.576 3.562-.201 4.873.644 2.26.734 4.332.271 6.162-.334 1.325.224 2.24 2.46 4.92l.451.544c1.574 1.903 2.461 2.79 3.56 3.008 2.533.506 4.472 2.545 4.945 5.192.485 2.737-.707 5.502-2.965 6.88-1.053.642-2.171 1.178-3.317 1.591-.449.163-.907.296-1.364.421-.143.041-.29.074-.43.119-2.078 2.197-5.209 2.92-9.315 2.15-4.612-.866-8.09-3.012-10.34-6.377l-1.704-2.548c-2.607-3.893-5.214-7.788-7.753-11.727-3.368-5.225-5.343-11.304-5.874-18.07-.328-4.204-.61-8.41-.891-12.617-.194-2.932-.39-5.863-.602-8.794-.333-4.605-.689-9.208-1.123-13.805-.068-.717-.231-1.423-.384-2.133-.164-.769-.326-1.537-.442-2.313-.046-.298-.085-.516-.12-.674-2.884-1.152-4.726-3.812-5.038-7.256-.902-.135-1.801-.276-2.688-.451-12.615-2.491-24.838-9.986-32.691-20.047-1.769-2.264-3.363-4.611-4.906-6.881l-1.563-2.29c-1.372-1.98-2.004-4.074-2.513-5.756-.184-.609-.363-1.219-.592-1.81-2.351-6.08-3.515-12.168-3.463-18.1.078-8.149 1.27-15.17 3.647-21.468 1.341-3.546 3.12-6.625 4.84-9.604.587-1.013 1.172-2.026 1.735-3.052 1.523-2.797 3.734-4.96 5.683-6.875l.906-.898C26.108 7.919 37.771 2.23 51.476.324 56.017-.308 60.477.116 64.41.49c8.22.784 16.303 3.566 24.712 8.505 4.684 2.749 9.083 6.566 13.451 11.668 4.903 5.725 7.795 12.265 10.59 18.588l.48 1.087.107.658c.235 1.452.523 2.891.807 4.331.912 4.597 1.854 9.347 1.39 14.628-.343 3.893-.812 8.365-2.03 12.911 3.073 2.097 4.838 5.308 5.026 9.227 5.798 5.021 12.062 9.593 18.75 13.701 2.533 1.557 5.545 3.357 8.656 4.902 1.165.58 2.343 1.127 3.52 1.675 1.998.93 4.063 1.892 6.1 3.008 1.77.97 3.65 1.813 5.642 2.705 2.885 1.295 5.868 2.633 8.753 4.477.67.428 1.353.838 2.034 1.25 1.114.671 2.227 1.345 3.3 2.075l1.502 1.019c2.896 1.962 5.888 3.991 8.77 6.183 1.986 1.512 4.18 3.237 6.435 5.187-.476-1.39-1.01-2.737-1.638-4.036-.874-1.81-1.69-3.646-2.505-5.483-1.49-3.353-2.895-6.52-4.644-9.483-1.731-2.929-3.042-5.972-4.31-8.915l-.319-.737c-1.413-3.27-1.964-6.723-1.682-10.551.776-10.555 9.59-15.942 17.488-15.657 8.817.318 15.546 3.25 20.566 8.96.51.583 1.037 1.148 1.563 1.713 1.47 1.58 3.135 3.37 4.532 5.54 2.974 4.623 4.413 9.44 5.861 14.806 2.099 7.78 2.426 15.548 2.743 23.06l.16 3.604c.374 7.76-1.554 15.124-3.69 21.925-1.923 6.116-3.82 10.991-5.969 15.337-.094.189-.136.317-.158.39.032.026.102.126.227.263 2.8 3.118 4.343 7.018 4.584 11.596.16 3.045.026 5.988-.101 8.835l-.056 1.211c-.089 2.121-.279 4.238-.469 6.356-.306 3.39-.594 6.594-.446 9.745.034.754.11.981.124 1.018 4.255 4.858 6.009 11.218 5.277 19.313-.123 1.365.01 2.883.148 4.489.121 1.395.255 2.937.234 4.56.465 1.174.837 2.326 1.202 3.451.773 2.386 1.441 4.447 2.72 5.851.93 1.017 2.209 2.417 2.83 4.558.673 2.314.266 4.573-.976 6.312z" transform="translate(-1719 -2129) translate(1720 2130)"/>
                <g transform="translate(-1719 -2129) translate(1720 2130)">
                    <use fill="#F7DFC8" xlink:href="#cbwobfqija"/>
                    <use fill="#FFFFF5" xlink:href="#cbwobfqija"/>
                </g>
                <path fill="#000" d="M182.648 139.915c-.096-.242-.192-.515-.296-.83.075.337.174.611.296.83" transform="translate(-1719 -2129) translate(1720 2130)"/>
                <path fill="#000" d="M188.865 85.184c-.155 1.142-.389 2.273-.605 3.406-.336 1.775-.218 3.473.842 5.009.062.09.203.125.323.195.886-.488.229-1.608.921-2.229.437-.393 1.256-.571 1.457-.084.934 2.267 1.867 4.534 2.731 6.828.132.348-.103.834-.169 1.257h-.001c-.654.02-1.335.175-1.868-.385.135-.475-.085-.809-.519-.877-.5-.078-.665.35-.616.737.046.367.26.715.4 1.07.11.824.222 1.646.333 2.468v.002c-.653.707-1.44 1.247-2.092.157-2.023-3.384-3.462-7.032-4.462-10.838-.734-2.788.303-5.125 2.132-7.18.145-.161.541-.262.73-.18.216.093.49.444.463.644m7.467 17.514c.239.704.475 1.425-.189 1.982-.725.608-1.31.147-1.803-.423-.378-.436-.722-.9-1.082-1.352.02-.859.42-1.474 1.196-1.845.82.321 1.564.714 1.878 1.638m-.789 7.106c-.018.117-.167.213-.254.32-.253.085-.507.24-.758.236-.267-.003-.605-.082-.785-.257-1.074-1.047-1.56-2.335-1.222-3.813.053-.227.813-.543 1.073-.428 1.169.517 2.157 2.633 1.946 3.942m11.96 10.325c.375.953.655 1.928.452 2.972.412.67.344 1.418-.355 1.651-1.005.335-1.365-.419-1.418-1.32-.684-.8-1.034-1.742-1.12-2.778-.06-.729-.04-1.458.618-1.963.502-.386 1.372.29 1.823 1.438m-2.792 4.99c1.348 2.313 1.938 4.856 2.151 7.488.042.513-.108 1.26-.934 1.172-.387-.042-.973-.243-1.083-.524-1.012-2.564-2.028-5.145-1.755-7.99.025-.266.232-.513.355-.768.256-.033.571-.171.752-.07.23.129.368.44.514.693m-13.366 22.312c.3-.157.613-.695.575-1.019-.17-1.428-.506-2.834-.688-4.26-.047-.37.153-.897.693-.919.209-.008.55.187.627.372.774 1.865 1.56 3.73 2.229 5.634.387 1.1.561 2.188-.69 3.08-.982.7-.635 1.871-.32 2.817.873 2.618 1.538 5.272 1.763 8.028.035.432.126.879.05 1.293-.038.21-.369.456-.609.515-.235.058-.688-.02-.764-.176-.629-1.293-1.191-2.619-1.773-3.935-.683.456-1.381.868-1.277 1.893.124 1.211.16 2.432.234 3.648.014.229.102.63.033.659-.567.236-.97-.011-1.22-.546-1.263-1.383-1.196-3.1-1.205-4.798-.465-1.798-.897-3.607-1.42-5.388-.123-.414-.658-.556-1.091-.377-.227.095-.535.38-.532.576.02 1.281.113 2.561.183 3.842.36.277.397.648.306 1.056-.088.392-.248.776-.724.66-.436-.107-.61-.444-.386-.894-.374-.435-.747-.872-1.12-1.308-.458-.22-.502-.565-.3-.985-.33-.442-.551-1.052-1.266-.954-.718.097-.854.702-.93 1.264-.102.753.724 1.606-.366 2.38-1.079-2.099-1.615-4.297-2.053-6.547-.15-.774-.277-1.744-1.402-1.92-.765-.122-1.042.511-.975 2.398.011.279.147.552.224.83-.893.714-1.68.48-2.063-.484-.47-1.188-.682-2.476-1.088-3.693-.127-.38-.508-.667-1.027-.548-.648.149-1.144.633-1.005 1.185.349 1.374.9 2.696 1.369 4.04-1.21 1.48-1.909 1.62-2.498.432-.45-.906-1.035-1.876-1.065-2.833-.094-3.025-1.696-5.575-2.407-8.398-.205-.813-.754-1.575-1.273-2.265-.549-.73-1.94-.973-2.246-.514-.52.778-.004 1.368.37 1.976.304.498.68.956.954 1.47.844 1.593.885 3.01.102 3.12-1.48.212-2.073-1.03-2.572-1.995-1.472-2.85-2.454-5.904-3.328-8.99-.517-1.822-1.106-3.624-1.695-5.425-.134-.409-.362-.803-.623-1.148-.354-.47-.814-.954-1.453-.753-.673.21-.696.855-.522 1.42.344 1.115.75 2.21 1.133 3.31.647 1.867.485 2.797-.54 2.925-1.348.167-1.593-.92-2.054-1.815-1.886-3.66-2.908-7.624-4.013-11.545-.52-1.847-1.235-3.557-2.183-5.202-.44-.763-.773-1.642-1.882-1.493-.572.076-.635 1.18-.163 2.303.393.937.85 1.856 1.13 2.826.079.278-.286.874-.592 1.02-.324.155-1.035.103-1.206-.13-1.116-1.53-2.164-3.091-2.536-5.037-.442-2.315-1.71-4.323-2.707-6.422-.242-.509-.767-1.013-1.405-.77-.6.226-.75.82-.524 1.448.247.683.541 1.351.735 2.049.133.474-.675.988-1.214.851-.724-.182-1.452-.41-1.837-1.077-.795-1.379-1.811-2.621-2.106-4.29-.338-1.91-1.718-3.333-2.752-4.9-.336-.511-1.009-.544-1.563-.147-.443.317-.314.757-.144 1.15.232.535.533 1.04.773 1.571.2.443.146.921-.33 1.08-.363.12-.905.129-1.2-.067-.592-.394-1.161-.893-1.58-1.466-1.549-2.112-3.273-4.11-4.208-6.629-.298-.802-.837-1.544-1.395-2.205-.218-.255-.81-.33-1.199-.271-.458.07-.632.511-.56.987.023.144.072.284.114.424.275.92 1.335 1.631.778 2.77-.318.65-1.514.11-2.74-1.476-1.872-2.421-3.693-4.888-5.407-7.421-.553-.817-.779-1.822.287-2.728.838-.713 1.424-1.721 2.09-2.559 1.183.334 1.739 1.232 2.48 1.915 5.168 4.756 10.962 8.68 16.79 12.557 1.815 1.208 3.434 2.691 5.48 3.586.73.319 1.3 1.175 1.757 1.901.738 1.175 1.553 1.673 2.855.87.735-.454 1.378-.1 2.02.297 2.25 1.39 4.373 2.91 5.744 5.262.292.5.673.95.995 1.396.909-.034 1.174-.693 1.566-1.32.332-.53.972-.536 1.563-.267 2.793 1.273 5.589 2.54 8.383 3.813 1.498.683 2.67 1.658 3.482 3.169.674 1.256 1.328 2.649 2.851 3.202 0-.001 0 0 0 0 .648-.83 1.368-1.566 2.486-.811 1.02.687 2.467.878 2.854 2.341 3.232 2.753 4.922 6.542 6.81 10.19.516.996.826 2.098 1.232 3.152 1.619 1.128 1.619 1.128 2.375-.374.168-.541.02-.979-.434-1.315-.338-.318-.504-.665-.181-1.093h.002c.391.133.782.268 1.173.403.937.81 1.317 1.817 1.07 3.044 1.085 2.21 1.89 4.519 2.545 6.89.167.607.772.924 1.366.612m9.031 10.522c.737 2.055 1.44 4.141 1.39 6.367-.008.393-.28.78-.334.922-.514.594-1.492.511-1.716.064-.192-.386-.436-.785-.481-1.197-.192-1.75-.49-3.451-1.278-5.061-.342-.7.21-1.51.918-1.671.645-.146 1.306.033 1.501.576m-69.209-26.024l.122 3.57c.578 3.282 1.084 6.58 1.756 9.842.553 2.691.953 5.495 2.041 7.976 1.97 4.485.883 8.163-2.07 11.638-.753.884-1.475 1.8-2.284 2.63-.614.63-1.676.563-2.29-.101-3.362-3.634-6.458-7.467-8.26-12.148-1.302-3.384-2.783-6.676-4.403-9.92-.701-1.405-.964-3.03-1.426-4.556-2.533-3.05-3.83-6.625-4.473-10.48l-.526-.654c-.775-.705-1.253-1.57-1.274-2.625-.005-.243.194-.588.402-.707.19-.109.598-.074.773.066.977.776 1.314 1.866 1.369 3.069 1.686 3.514 4.098 6.653 5.364 10.384.138.405.232.827.346 1.242.345.462.797.878 1.017 1.394 2.889 6.763 7.355 12.511 11.73 18.32 1.042 1.384 1.317 1.386 2.776.206 1.704-1.378 1.927-2.952 1.244-5.042-2.238-6.852-2.952-13.955-3.048-21.133h.002l-.001-.001c-.545-.688-.403-1.462-.274-2.233-.298-.696-.323-1.42.48-1.676.572-.18.952.289.907.939m7.933 35.863c.73 1.085 1.508 2.138 2.266 3.204.272.292.6.552.794.888.111.19.091.552-.018.758-.247.472-.675.294-1.026.122-.236-.116-.426-.329-.636-.499-.235-.18-.468-.36-.702-.542-1.182-1.026-3.07-1.283-3.456-3.175-1.36-1.591-1.36-1.591.315-4.07 1.382.696 1.704 2.184 2.463 3.314m-5.204 1.837c1.38 1.42 2.71 2.887 4.362 4.66-2.752-.265-4.646-1.19-6.25-2.754-.434-.422-.742-.91-.395-1.517.355-.622 1.792-.894 2.283-.39M56.8 112.466c.115-1.24.835-2.173 2.065-2.37 1.825-.289 3.67-.447 5.506-.66.123-.08.236-.207.369-.233 7.867-1.543 14.572-5.606 21.27-9.72 4.75-2.92 8.879-6.524 12.638-10.613 2.662-2.895 5.403-5.7 7.386-9.155.777-1.353 2.613-1.51 3.797-.474 1.287 1.126 1.947 2.348 1.203 4.228-.587 1.483-.966 3.016-1.997 4.3-6.06 7.54-13.054 14.063-21.37 19.024-6.243 3.722-12.653 7.177-19.96 8.443-.749.578-1.655.239-2.472.422-.262.353-.557.41-.893.1-2.007.107-4.007.196-5.918-.651-1.352-.6-1.757-1.205-1.624-2.64m-13.508-56.77c.163.23.535.67.799 1.168.116.218.083.58-.011.83-.161.43-.537.622-1.006.66-.774.06-1.417-.263-2.033-.66-1.03-.665-2.15-.85-3.35-.69-.84.112-1.32.57-1.35 1.414-.015.43.091.866.138 1.3.098.919.072 1.847-1.093 1.984-.895.104-1.155-.68-1.408-1.374-1.662-4.562.733-5.848 4.507-6.069 1.814-.105 3.133.398 4.807 1.436m-8.07 45.251c-1.773-1.018-3.67-1.851-5.337-3.014-4.838-3.375-8.722-7.744-12.036-12.557-2.217-3.218-4.243-6.575-5.45-10.401-1.18-3.75-2.165-7.512-2.711-11.402-.673-4.796-.26-9.57.52-14.285 1.002-6.07 2.953-11.798 6.493-16.986 2.46-3.606 4.88-7.156 8.104-10.165 7.946-7.411 17.264-11.721 28.017-13.162 9.864-1.323 19.237.522 27.912 4.958 6.738 3.445 12.598 8.19 17.221 14.496 3.882 5.294 6.08 11.216 8.195 17.235 1.064 3.03 1.135 6.3 1.293 9.487.319 6.446-.488 12.76-2.792 19.246-2.952-.863-4.56-3.136-6.43-4.87-2.992-2.769-6.072-5.42-9.257-7.938-2.908-2.299-4.74-5.08-5.26-8.763-.418-2.957-1.68-5.544-3.651-7.798-2.011-2.3-4.453-3.719-7.549-3.989-2.586-.225-5.234-.326-7.345-2.183-3.85-.916-7.713-1.483-11.61-.282-.977.301-1.95.643-2.879 1.064-4.138 1.88-8.53 1.707-12.91 1.64-.284-.004-.602-.04-.845-.171-3.695-1.992-6.122.544-8.46 2.61-1.714 1.513-2.288 3.765-1.46 6.03.521 1.427.435 2.812.468 4.268.16 6.844 3.141 12.513 7.436 17.685 3.086 3.718 6.954 6.587 10.294 10.023 5.916 6.084 10.09 13.148 12.378 21.31.309 1.107.277 2.31.402 3.443-.837 1.013-1.92.626-2.858.548-7.067-.583-13.727-2.531-19.894-6.077M79.6 57.626c-.689-.468-.631-1.242-.74-1.934-.266-1.697-.509-3.396-.76-5.095-.39-.608-.724-1.261-1.174-1.818-2.833-3.497-5.228-3.392-8.038-2.05-.655.313-1.275.716-1.953.966-.765.283-1.454.106-1.65-.8-.396-1.847-1.624-2.088-3.283-2.045-1.932.05-4.024.819-5.755-.854-.211-.204-.838.009-1.27.048-3.454.31-6.906.624-10.36.937l-.147-1.068c2.59-.364 5.14-.799 7.574-1.882 2.857-1.272 5.904-1.438 8.98-.957.559.087 1.265.124 1.622.472 2.219 2.17 5.105 2.07 7.788 2.06 2.15-.008 4.15.245 5.751 1.504 1.674 1.317 3.316 2.87 3.484 5.28 1.302 1.563 1.459 3.377 1.162 5.294-.195 1.266-.8 2.236-1.231 1.942m15.679 22.586c-1.483.947-1.6.896-2.192-.576-1.46-3.63-3.1-7.17-5.083-10.544.021-.78-.258-1.43-.928-1.84-.222-.135-.592-.206-.815-.113-.191.079-.398.45-.37.662.075.575.27 1.133.419 1.698-1.944.006-2.743-.332-3.045-1.532-.608-2.415-.795-4.812.91-7.141 5.967 5.43 11.837 10.77 17.703 16.113.95.864 1.004 1.477.458 2.67-.691 1.515-2.088 2.335-3.186 3.796-.94-1.267-1.664-2.313-2.466-3.294-.452-.553-.844-.257-1.405.101m131.02 168.296v.001c.7.401 1.118.989 1.19 1.805.275.075.398.254.366.538l-.003.005.003-.005.39.625-.713-.172c-1.209-.351-2.202-.987-2.822-2.12l-.74-1.032c-1.482-.962-1.737-2.619-2.149-4.106-.296-1.072.554-1.859 1.561-2.643 1.262 2.29 2.158 4.666 2.916 7.104m-4.253 1.484c.498.231.63.64.552 1.148.259.077.391.25.397.52.155.189.481.458.437.554-.236.502-.544.17-.822-.01-1.154-.43-2.132-1.094-2.824-2.135-.508-.186-.585-.594-.554-1.06-.324-.281-.753-.5-.954-.852-.921-1.602-.904-2.88-.022-2.942 1.288-.092 1.58.927 2.03 1.847.497 1.02 1.166 1.958 1.76 2.93m-72.91-33.575c.212.467-.087.898-.48 1.009-2.03.569-4.623-.724-5.31-2.622-.088-.241-.068-.683.086-.815.295-.248.748-.513 1.09-.463 1.073.157 2.701 1.026 4.003 1.993.138.198.438.519.61.898m-19.51-8.5c.272.478.13 1.12-.425 1.51-.521.368-1.154.442-1.635.136-1.202-.763-1.725-1.93-1.43-3.338.067-.322.518-.627.86-.807.191-.1.526.07.885.135.566.747 1.255 1.499 1.745 2.363m26.97 59.795c-.352 2.16-.116 4.303.19 6.443.06.42.062.94-.416.967-.354.02-.802-.29-1.084-.575-1.668-1.682-1.92-3.799-1.727-6.022.076-.881 1.972-1.893 2.681-1.458.32.068.415.279.355.645m-7.911.59c.065-.558.381-1.144 1.117-.997.38.077.727.354 1.064.58.084.056.083.264.088.403.038.99.068 1.98.1 2.97v.002l-.826.936c-.704-1.225-1.724-2.344-1.543-3.893M86.74 187.087c1.07 1.139 2.124 2.294 3.187 3.442-2.533-.205-4.544-1.255-6.13-3.012-.469-.519-.985-1.156-1.085-1.8-.102-.653.284-1.38.505-2.27 1.776.741 2.4 2.447 3.523 3.64m-5.714.606c1.411 2.144 3.572 3.29 5.36 5.013-4.162.671-6.79-1.212-8.473-4.792 1.07-.78 2.329-1.413 3.113-.221M194.923 78.52c-4.984-.18-11.484 3.107-12.05 10.848-.21 2.873.16 5.552 1.266 8.123 1.327 3.081 2.629 6.206 4.323 9.087 2.895 4.924 4.877 10.257 7.338 15.372 2.926 6.08 3.966 12.784 5.926 19.186.369 1.207.215 2.575.303 3.869l-1.01-.49c-.41-.416-.877-.791-1.223-1.255-4.676-6.262-10.493-11.35-16.654-16.055-3.244-2.478-6.648-4.747-10.021-7.051-1.686-1.15-3.48-2.145-5.2-3.249-4.432-2.845-9.463-4.484-14.058-7.013-3.053-1.68-6.285-3.034-9.408-4.59-3.108-1.55-6.082-3.31-9.05-5.14-7.101-4.38-13.772-9.266-20.015-14.772-.677-.597-1.21-1.17-1.161-2.193.162-3.44-1.332-5.857-4.608-7.081-.85-.319-.99-.928-.83-1.732.115-.569.076-1.175.24-1.724 1.306-4.34 1.825-8.765 2.221-13.287.538-6.13-1.195-11.835-2.142-17.7-2.756-6.256-5.461-12.527-9.97-17.812-3.52-4.127-7.476-7.852-12.098-10.577-6.92-4.08-14.328-7.036-22.501-7.818-3.913-.374-7.857-.728-11.685-.193-12.162 1.7-22.864 6.657-31.603 15.443-2.053 2.064-4.33 4.109-5.692 6.604-2.155 3.946-4.63 7.697-6.254 12.013-2.42 6.433-3.242 13.045-3.305 19.71-.05 5.5 1.098 10.998 3.104 16.204.837 2.169 1.177 4.539 2.527 6.498 2.065 3 4.043 6.07 6.275 8.94 6.794 8.738 17.566 15.795 29.51 18.163 2.21.439 4.511.645 6.732 1.107.042 1.445.055 2.596.114 3.743.07 1.401.562 2.737 1.918 3.192 2.358.789 2.893 2.6 3.208 4.699.238 1.585.71 3.144.859 4.735.437 4.641.794 9.29 1.13 13.94.514 7.136.93 14.28 1.488 21.413.438 5.612 1.988 10.918 5.048 15.685 3.07 4.78 6.24 9.495 9.388 14.224 1.645 2.474 4.147 3.624 6.937 4.15 1.577.297 3.598.458 4.585-.67 1.132-1.288 2.45-1.328 3.755-1.801.819-.298 1.619-.686 2.362-1.14.864-.529.722-2.323-.276-2.523-2.975-.596-4.807-2.686-6.558-4.811-2.38-2.892-5.031-5.715-3.935-10.065.271-1.076.081-2.37-.23-3.47-.836-2.94-.103-5.763.3-8.638.83-5.906 1.566-11.827 2.342-17.74l1.135-1.42c.419.593.859 1.173 1.252 1.781 2.616 4.047 4.633 8.42 6.882 12.667 2.796 5.278 5.779 10.46 8.51 15.771 2.93 5.698 5.948 11.341 9.353 16.768 1.468 2.337 3.06 4.597 4.595 6.892 1.09 1.63 1.712 3.342 1.265 5.364-1.61 7.283-.787 14.456 1.049 21.578.764 2.966 1.756 5.835 2.903 8.689 3.876 9.645 9.236 18.11 18.043 24.017.887.594 1.572 1.24 1.682 2.393.395 4.102 2.855 7.59 3.502 11.634.158.975.696 1.906 1.145 2.815 1.305 2.632 3.402 4.419 6.298 4.82 1.26.175 2.584.26 3.88.348 1.076.074 1.85-.75 2.011-1.861.177-1.227-.36-2.303-.649-3.414-.873-3.357-.082-6.662.14-9.988 2.035-3.232 2.535-7.051 4.009-10.511 1.482-3.478 2.486-7.154 4.169-10.571.833-1.693 1.52-3.467 2.159-5.246 1.144-3.188.557-4.259-2.678-4.799-2.15-.357-4.427-.217-6.478-.85-10.446-3.222-19.974-8.119-27.725-16.028-.862-.878-2.402-1.465-1.795-3.142.34-.94 1.613-.516 3.709 1.095.91.699 1.55 2.105 2.771 1.972 1.704-.187 2.686.844 3.911 1.569 1.632.965 3.323 1.83 4.967 2.774.933.535 1.86.702 2.933.458 4.371-.994 7.86 1.479 11.568 3.05.373.16.566.594.348 1.085-.206.465-.63.734-1.022.627-1.817-.497-3.765-.456-5.461-1.481-1.261-.763-2.725-1.008-4.197-1.017-.414-.003-.86.154-.983.691-.111.486.092.879.451 1.111 2.09 1.36 4.482 2.067 6.731 3.083 3.522 1.59 7.32 1.897 11.042 2.583 4.329.798 8.641 1.304 12.972-.002 1.39-.419 2.822-.698 4.234-1.042.77.092 1.425-.13 1.243-1.009-.113-.542-.766-.627-1.328-.469-2.517-1.752-5.062-3.467-7.545-5.267-2.978-2.156-5.668-4.655-7.651-7.76-2.333-3.654-5.456-6.854-6.503-11.28-.298-1.258-1.021-2.417-1.558-3.618-.713-1.597-1.416-3.2-2.159-4.784-.32-.686-.485-1.377-.34-2.12.117-.612.444-1.06 1.104-1.181.485-.088.864.103 1.073.522.715 1.436 1.454 2.863 2.09 4.334 2.078 4.81 3.93 9.716 6.933 14.083 2.572 3.741 5.42 7.212 8.999 10.024 2.984 2.344 5.963 4.704 9.51 6.197.531.223 1.213.461 1.47.9 1.27 2.162 3.552 2.542 5.596 3.047 3.786.935 7.035 2.687 9.902 5.27.648.585 1.347 1.172 2.125 1.543 3.567 1.7 5.449 4.59 6.488 8.318.964 3.457 2.893 6.408 5.99 8.389 2.416 1.543 4.933 2.326 7.657.532.569-.375 1.42-.293 2.112-.515 1.325-.425 1.827-1.421 1.459-2.691-.295-1.02-.976-1.738-1.674-2.506-3.058-3.368-3.533-7.917-5.31-11.875.25-3.499-.637-6.938-.318-10.477.506-5.619-.17-11.06-4.094-15.591-.995-1.15-1.24-2.536-1.31-4.063-.257-5.565.677-11.057.915-16.59.136-3.193.327-6.359.159-9.563-.17-3.217-1.156-6.067-3.252-8.41-1.837-2.05-1.983-4.164-.863-6.439 2.32-4.708 4.094-9.63 5.656-14.616 2.05-6.55 3.779-13.272 3.448-20.149-.41-8.56-.457-17.173-2.722-25.6-1.26-4.692-2.552-9.233-5.202-13.368-1.594-2.49-3.702-4.459-5.613-6.641-4.47-5.107-10.33-6.963-16.78-7.198" transform="translate(-1719 -2129) translate(1720 2130)"/>
                <path fill="#000" d="M108.918 129.489c-.279-.023-.559-.02-.836.036l.819-.016c.004-.007.011-.013.017-.02M160.23 132.467c-.743 1.27.43 5.223 1.884 6.338.447.342 1.009.193 1.47-.132.143-.264.424-.54.416-.808-.056-2.022-.72-3.919-1.893-5.677-.111-.168-.668-.218-.987-.171-.325.049-.758.225-.89.45M175.087 144.657c-.376 1.905.55 3.473 1.225 5.09.075.18.522.292.762.24.257-.054.59-.284.689-.532.609-1.525-.015-4.228-1.188-5.37-.29-.025-.61-.143-.863-.049-.251.094-.575.37-.625.621M172.922 128.205c.274-1.166-.226-2.116-.685-3.079h-.002l-.242-.016-1.392-.095-.222-.015c-.865 1.758-.156 2.953 1.176 3.9.431.307 1.238-.14 1.367-.695M153.11 124.792c-.417 1.215.411 2.89 1.554 3.194.342.092.8-.305 1.09-.43.591-1.366.075-2.896-1.114-3.445-.663-.307-1.318.057-1.53.68M89.597 101.557c.614-.752.527-1.903-.265-2.338-.61-.334-1.318-.292-1.833.166-.754.75-.653 1.728.298 2.318.577.359 1.286.482 1.8-.146M65.422 114.696l.38-.11.198-2.455L64.553 111l-.056.02h-.001l-.156.271-1.34 2.315L64.374 115l1.048-.304M108.58 84.439c.466-.689.635-1.42.028-2.038-.843-.657-1.584-.435-2.172.153-.663.663-.525 1.423.111 2.057.582.58 1.577.502 2.034-.172M100.82 94.023c.357-.718.16-1.325-.394-1.823-.857-.498-2.114-.023-2.37.956-.2.767.147 1.379.779 1.675.848.398 1.545.078 1.985-.808M77.676 109.466c.31-.597.516-1.2.051-1.818-.62-.824-1.844-.887-2.385-.045-.343.536-.505 1.222-.114 1.85.455.731 1.785.723 2.448.013M104.915 89.142c.226-.5-.03-1.714-.419-1.978-.594-.406-1.897-.01-2.295.658-.492.827.013 1.432.501 1.885.648.597 1.857.22 2.213-.565M71.786 112.732c.334-.555.284-1.13-.203-1.502-.496-.38-1.074-.294-1.427.29-.227.38-.236.789.173 1.1.461.35.931.59 1.457.112M84.644 105.73c.418-.412.519-.973.025-1.504-.5-.33-.952-.32-1.422.17-.4.418-.243.888-.026 1.162.362.459.955.63 1.423.172M95.622 98.778h.001c1.307.075 1.554-.67 1.273-1.56-.266-.84-.942-1.543-2.007-1.06-.906.41-1.208 1.176-.487 2.027-.016.022-.01.057.01.098.053.759.47.9 1.21.495" transform="translate(-1719 -2129) translate(1720 2130)"/>
            </g>
        </g>
    </g>
</svg>
