<?xml version="1.0" encoding="UTF-8"?>
<svg xmlns="http://www.w3.org/2000/svg" xmlns:xlink="http://www.w3.org/1999/xlink" width="75pt" height="74.999997pt" viewBox="0 0 75 74.999997" version="1.2">
<defs>
<clipPath id="clip1">
  <path d="M 37.5 0 L 39.050781 27.757812 L 49.089844 1.832031 L 41.972656 28.710938 L 59.535156 7.167969 L 44.457031 30.542969 L 67.832031 15.464844 L 46.273438 33.027344 L 73.152344 25.910156 L 47.222656 35.949219 L 74.980469 37.5 L 47.222656 39.050781 L 73.152344 49.089844 L 46.273438 41.972656 L 67.832031 59.535156 L 44.457031 44.457031 L 59.535156 67.832031 L 41.972656 46.273438 L 49.089844 73.152344 L 39.050781 47.222656 L 37.5 74.980469 L 35.949219 47.222656 L 25.910156 73.152344 L 33.027344 46.273438 L 15.464844 67.832031 L 30.542969 44.457031 L 7.167969 59.535156 L 28.710938 41.972656 L 1.832031 49.089844 L 27.757812 39.050781 L 0 37.5 L 27.757812 35.949219 L 1.832031 25.910156 L 28.710938 33.027344 L 7.167969 15.464844 L 30.542969 30.542969 L 15.464844 7.167969 L 33.027344 28.710938 L 25.910156 1.832031 L 35.949219 27.757812 Z M 37.5 0 "/>
</clipPath>
</defs>
<g id="surface1">
<g clip-path="url(#clip1)" clip-rule="nonzero">
<rect x="0" y="0" width="75" height="74.999997" style="fill:rgb(6.269836%,6.269836%,6.269836%);fill-opacity:1;stroke:none;"/>
</g>
</g>
</svg>
