<?xml version="1.0" encoding="UTF-8"?>
<svg xmlns="http://www.w3.org/2000/svg" xmlns:xlink="http://www.w3.org/1999/xlink" width="150pt" height="149.999998pt" viewBox="0 0 150 149.999998" version="1.2">
<g id="surface1">
<path style=" stroke:none;fill-rule:nonzero;fill:rgb(6.269836%,6.269836%,6.269836%);fill-opacity:1;" d="M 145 70 C 109.15625 70 80 40.84375 80 5 C 80 2.238281 77.761719 0 75 0 C 72.238281 0 70 2.238281 70 5 C 70 40.84375 40.84375 70 5 70 C 2.238281 70 0 72.238281 0 75 C 0 77.761719 2.238281 80 5 80 C 40.84375 80 70 109.15625 70 145 C 70 147.761719 72.238281 150 75 150 C 77.761719 150 80 147.761719 80 145 C 80 109.15625 109.15625 80 145 80 C 147.761719 80 150 77.761719 150 75 C 150 72.238281 147.761719 70 145 70 Z M 75 118.296875 C 67.386719 98.417969 51.582031 82.613281 31.703125 75 C 51.582031 67.386719 67.386719 51.582031 75 31.703125 C 82.613281 51.582031 98.417969 67.386719 118.296875 75 C 98.417969 82.613281 82.613281 98.417969 75 118.296875 Z M 75 118.296875 "/>
</g>
</svg>
